<?xml version="1.0" encoding="iso-8859-1"?>
<!-- Uploaded to: SVG Repo, www.svgrepo.com, Generator: SVG Repo Mixer Tools -->
<svg fill="#000000" height="800px" width="800px" version="1.1" id="Layer_1" xmlns="http://www.w3.org/2000/svg" xmlns:xlink="http://www.w3.org/1999/xlink" 
	 viewBox="0 0 503.891 503.891" xml:space="preserve">
<g>
	<g>
		<path d="M339.895,211.009c-0.025-0.017-0.059-0.034-0.092-0.05c-0.176-0.101-17.366-10.416-20.312-26.8
			c-1.796-9.955,2.006-20.69,11.314-31.92l0.092-0.126c4.037-4.784,24.5-33.154,5.389-93.209
			c6.488-19.464,13.052-32.407,23.032-45.4c2.829-3.676,2.132-8.939-1.544-11.768c-3.668-2.829-8.931-2.115-11.768,1.544
			C334.8,17.867,327.497,32.203,320.38,53.565c-1.519,1.108-3.265,2.35-5.439,3.886c-14.915,10.483-41.371,29.218-63.018,56.303
			c-21.815-27.254-48.707-46.273-62.942-56.27c-2.191-1.544-3.945-2.795-5.481-3.911c-7.118-21.37-14.412-35.697-25.625-50.294
			c-2.812-3.66-8.075-4.373-11.768-1.544c-3.676,2.829-4.373,8.091-1.544,11.768c9.98,12.993,16.543,25.936,23.032,45.4
			c-19.104,60.055,1.351,88.425,5.389,93.209l0.101,0.126c9.266,11.188,13.077,21.898,11.323,31.828
			c-2.913,16.51-20.178,26.8-20.413,26.943c-41.741,24.744-10.769,158.871-4.012,185.94c10.156,33.171,16.426,82.038,16.485,82.533
			c0.235,1.847,1.074,3.567,2.392,4.877c17.416,17.416,50.738,19.532,65.889,19.532c3.718,0,6.245-0.117,7.26-0.185
			c1.125,0.067,3.609,0.176,7.151,0.176c15.159,0,48.464-2.115,65.863-19.523c1.318-1.309,2.157-3.03,2.392-4.877
			c0.059-0.495,6.329-49.362,16.611-82.969C350.655,369.88,381.627,235.753,339.895,211.009z M327.85,392.03
			c-9.199,30.023-15.117,70.74-16.678,82.256c-12.447,10.232-36.142,12.691-50.629,12.825v-0.042
			c0.067-1.074,0.159-2.082,0.269-3.139c0.034-0.369,0.076-0.755,0.118-1.15c0.117-0.99,0.235-1.989,0.378-3.198
			c0.579-4.768,1.393-11.583,2.501-24.971c0.579-7.092,2.182-21.093,4.214-38.811c6.539-57.126,17.492-152.727,17.492-214.36
			c0-4.138-0.285-8.251-0.705-12.347c-0.109-1.142-0.252-2.275-0.394-3.399c-0.428-3.29-0.982-6.564-1.67-9.829
			c-0.159-0.73-0.269-1.477-0.436-2.199c-0.856-3.718-1.922-7.42-3.131-11.096c-0.378-1.141-0.797-2.249-1.209-3.374
			c-0.932-2.61-1.947-5.221-3.064-7.806c-0.495-1.158-0.99-2.308-1.511-3.45c-1.284-2.778-2.677-5.54-4.155-8.293
			c-0.369-0.671-0.697-1.368-1.074-2.04c-1.847-3.315-3.811-6.614-5.951-9.887c19.783-26.095,45.467-44.62,60.609-55.288
			c12.716,48.052-4.633,68.717-4.818,68.927c-0.159,0.185-0.327,0.386-0.47,0.579c-12.347,15.075-17.249,30.284-14.563,45.199
			c4.289,23.829,26.716,37.342,28.387,38.324C354.138,239.035,342.958,331.278,327.85,392.03z"/>
	</g>
</g>
</svg>